# xmcd
#
# Track frame offsets:
#	150
#	34220
#	48447
#	78862
#	112555
#	142984
#	177696
#	204777
#	235247
#	264702
#
# Disc length: 3953 seconds
#
# Revision: 0
# Processed by: cddbd v1.5.1PL2 Copyright (c) Steve Scherf et al.
# Submitted via: EasyCDDAExtractor 9.0.0.1
#
DISCID=7d0f6f0a
DTITLE=Various (By Dj Zraf) - Miami Passport 06
DYEAR=2006
DGENRE=House
TTITLE0=Ill Beat - All I Need (Jules Spinner Remix)
TTITLE1=Stylophonic - Baby Beat Box
TTITLE2=Till West and Dj Delicious - Same Man (Original Mix)
TTITLE3=Deep Dish Feat Steve Nicks - Dreams (Miami Calling Remix)
TTITLE4=Azzido Da Bass - Lonely By Your Side (Glitzer Remix)
TTITLE5=Stevens and Marcllus - Hello (Club Mix)
TTITLE6=Filterfunk - S.O.S. (Message In A Bottle) (Hi_Tack Remix)
TTITLE7=Yves Cheminade - Vibenight
TTITLE8=Ben Macklin - Feel Together (Tom Novy's Roll Remix)
TTITLE9=Claude Von Stroke - Deep Throat
EXTD=
EXTT0=
EXTT1=
EXTT2=
EXTT3=
EXTT4=
EXTT5=
EXTT6=
EXTT7=
EXTT8=
EXTT9=
PLAYORDER=
